<?xml version="1.0" encoding="UTF-8"?>
<svg width="357px" height="60px" viewBox="0 0 357 60" version="1.1" xmlns="http://www.w3.org/2000/svg" xmlns:xlink="http://www.w3.org/1999/xlink">
    <!-- Generator: sketchtool 55.2 (78181) - https://sketchapp.com -->
    <title>C6EA2067-D188-4006-9CFC-00F51A42F202</title>
    <desc>Created with sketchtool.</desc>
    <defs>
        <polygon id="path-1" points="0 0.8719 57.3301 0.8719 57.3301 38.4039 0 38.4039"></polygon>
        <polygon id="path-3" points="0 59.2629 356.863 59.2629 356.863 -0.0001 0 -0.0001"></polygon>
    </defs>
    <g id="Symbols" stroke="none" stroke-width="1" fill="none" fill-rule="evenodd">
        <g id="Component/Logo/logotype">
            <g id="Group-46">
                <g id="Group-3" transform="translate(0.000000, 11.262900)">
                    <mask id="mask-2" fill="white">
                        <use xlink:href="#path-1"></use>
                    </mask>
                    <g id="Clip-2"></g>
                    <path d="M11.4431,24.7039 C10.8451,25.4919 10.3811,26.3859 10.0831,27.3529 C7.2001,27.3369 5.1531,27.2949 4.7951,27.2129 C4.3031,26.6449 3.9631,25.9939 3.5951,24.8889 C3.6301,24.8639 3.6701,24.8409 3.7071,24.8169 L11.4431,24.7039 Z M18.2501,24.6419 C21.1331,24.6419 23.4701,26.9789 23.4701,29.8629 C23.4701,32.7459 21.1331,35.0829 18.2501,35.0829 C15.3671,35.0829 13.0291,32.7459 13.0291,29.8629 C13.0291,26.9789 15.3671,24.6419 18.2501,24.6419 L18.2501,24.6419 Z M37.1481,0.8719 C32.9341,0.8719 24.5431,9.1839 23.1631,10.9609 C21.5001,11.2639 5.2291,14.5699 1.6391,16.8569 C0.9301,18.0849 1.3271,22.0249 1.7801,23.1869 C1.0151,23.5559 0.4481,24.0379 0.0321,24.4159 C-0.3269,25.3609 2.3611,30.1459 3.7361,31.5209 C4.0051,31.7389 6.4551,31.8399 9.9481,31.8699 C10.8511,35.6189 14.2241,38.4039 18.2501,38.4039 C22.3281,38.4039 25.7361,35.5459 26.5861,31.7249 C33.4121,31.5999 39.1131,31.4459 39.1131,31.4459 L35.8241,27.2129 C35.8241,27.2129 31.6711,27.2599 26.4001,27.3019 C26.0771,26.2719 25.5641,25.3279 24.9021,24.5079 L32.1711,24.4009 L30.6501,22.6259 C30.6501,22.6259 27.2531,22.6409 22.8401,22.6609 C21.5141,21.8139 19.9401,21.3209 18.2501,21.3209 C16.5331,21.3209 14.9361,21.8289 13.5971,22.7009 C10.8441,22.7129 6.6851,22.7229 4.7591,22.7279 C4.4021,21.3679 4.2111,19.6799 4.3031,18.3119 C7.5161,16.4779 26.0171,13.2659 27.3961,12.9259 C29.3051,10.4879 36.0141,3.0629 38.5081,2.9879 C39.4851,2.9589 55.0631,2.9119 55.0631,2.9119 L57.3301,0.8719 L37.1481,0.8719 Z" id="Fill-1" fill="#272F40" mask="url(#mask-2)"></path>
                </g>
                <path d="M63.2776,18.0078 L58.4966,25.5418 C58.5246,26.0448 58.5396,26.5508 58.5396,27.0618 C58.5396,42.0068 46.4236,54.1228 31.4786,54.1228 C27.2766,54.1228 23.2986,53.1628 19.7506,51.4538 C19.2606,51.5248 18.7596,51.5618 18.2496,51.5618 C17.3956,51.5618 16.5666,51.4568 15.7716,51.2638 C21.0686,56.2228 28.1846,59.2628 36.0136,59.2628 C52.3786,59.2628 65.6456,45.9958 65.6456,29.6318 C65.6456,25.5058 64.8016,21.5768 63.2776,18.0078" id="Fill-4" fill="#272F40"></path>
                <path d="M29.4851,25.6983 L38.2061,25.6983 L43.2701,32.1263 L61.5811,11.6613 C62.1951,10.9743 63.0721,10.5833 63.9931,10.5833 L66.4771,10.5833 L44.4801,41.5613 C43.7191,42.6333 42.1481,42.6843 41.3181,41.6673 L29.0501,26.6143 C28.7511,26.2473 29.0121,25.6983 29.4851,25.6983" id="Fill-6" fill="#DD3128"></path>
                <path d="M15.5926,21.458 C19.7496,11.857 29.3076,5.141 40.4356,5.141 C45.8626,5.141 50.9136,6.738 55.1496,9.488 L57.6246,9.488 C52.2136,3.654 44.4856,0 35.9006,0 C21.5786,0 9.6306,10.16 6.8696,23.666 C9.6786,22.851 12.8446,22.081 15.5926,21.458" id="Fill-8" fill="#272F40"></path>
                <polygon id="Fill-10" fill="#272F40" points="86.2371 24.8672 81.8561 24.8672 81.8561 36.7832 78.9091 36.7832 78.9091 24.8672 74.5871 24.8672 74.5871 22.4802 86.2371 22.4802"></polygon>
                <polygon id="Fill-12" fill="#272F40" points="96.3211 30.585 90.6631 30.585 90.6631 34.416 97.3031 34.416 97.3031 36.783 87.7161 36.783 87.7161 22.481 97.2841 22.481 97.2841 24.867 90.6631 24.867 90.6631 28.276 96.3211 28.276"></polygon>
                <polygon id="Fill-14" fill="#272F40" points="103.949 27.4121 106.631 22.4801 110.02 22.4801 105.855 29.5731 110.128 36.7831 106.699 36.7831 103.949 31.7731 101.199 36.7831 97.77 36.7831 102.043 29.5731 97.878 22.4801 101.267 22.4801"></polygon>
                <path d="M115.1136,31.4492 L118.6896,31.4492 L116.8916,26.0952 L115.1136,31.4492 Z M119.4856,33.8362 L114.3176,33.8362 L113.3356,36.7832 L110.2016,36.7832 L115.5266,22.4802 L118.2576,22.4802 L123.6106,36.7832 L120.4776,36.7832 L119.4856,33.8362 Z" id="Fill-16" fill="#272F40"></path>
                <path d="M132.1629,33.0303 C132.1629,32.4733 131.9659,32.0473 131.5739,31.7493 C131.1809,31.4513 130.4729,31.1363 129.4519,30.8053 C128.4299,30.4743 127.6209,30.1493 127.0249,29.8283 C125.4009,28.9513 124.5889,27.7683 124.5889,26.2823 C124.5889,25.5093 124.8069,24.8203 125.2419,24.2143 C125.6779,23.6083 126.3029,23.1343 127.1189,22.7953 C127.9339,22.4543 128.8489,22.2843 129.8639,22.2843 C130.8859,22.2843 131.7959,22.4683 132.5949,22.8393 C133.3939,23.2093 134.0149,23.7313 134.4559,24.4053 C134.8989,25.0803 135.1199,25.8463 135.1199,26.7043 L132.1729,26.7043 C132.1729,26.0503 131.9659,25.5403 131.5539,25.1763 C131.1409,24.8133 130.5619,24.6323 129.8149,24.6323 C129.0949,24.6323 128.5349,24.7843 128.1349,25.0893 C127.7359,25.3923 127.5359,25.7943 127.5359,26.2923 C127.5359,26.7573 127.7699,27.1463 128.2379,27.4613 C128.7059,27.7753 129.3959,28.0693 130.3059,28.3443 C131.9829,28.8493 133.2039,29.4743 133.9709,30.2203 C134.7369,30.9673 135.1199,31.8973 135.1199,33.0103 C135.1199,34.2493 134.6509,35.2193 133.7149,35.9243 C132.7779,36.6283 131.5179,36.9793 129.9329,36.9793 C128.8329,36.9793 127.8309,36.7783 126.9269,36.3763 C126.0229,35.9723 125.3339,35.4213 124.8589,34.7203 C124.3839,34.0193 124.1469,33.2073 124.1469,32.2843 L127.1039,32.2843 C127.1039,33.8623 128.0469,34.6513 129.9329,34.6513 C130.6339,34.6513 131.1809,34.5093 131.5739,34.2243 C131.9659,33.9393 132.1629,33.5413 132.1629,33.0303" id="Fill-18" fill="#272F40"></path>
                <path d="M148.1404,32.0186 C148.0294,33.5576 147.4614,34.7696 146.4364,35.6536 C145.4114,36.5386 144.0604,36.9796 142.3844,36.9796 C140.5504,36.9796 139.1084,36.3626 138.0574,35.1276 C137.0064,33.8936 136.4804,32.1996 136.4804,30.0436 L136.4804,29.1696 C136.4804,27.7946 136.7224,26.5826 137.2074,25.5356 C137.6914,24.4876 138.3844,23.6836 139.2854,23.1236 C140.1854,22.5636 141.2314,22.2846 142.4234,22.2846 C144.0744,22.2846 145.4034,22.7256 146.4114,23.6106 C147.4204,24.4946 148.0034,25.7356 148.1604,27.3326 L145.2134,27.3326 C145.1414,26.4096 144.8844,25.7406 144.4424,25.3246 C144.0004,24.9086 143.3274,24.7006 142.4234,24.7006 C141.4414,24.7006 140.7054,25.0526 140.2184,25.7566 C139.7304,26.4596 139.4794,27.5526 139.4664,29.0326 L139.4664,30.1136 C139.4664,31.6596 139.7014,32.7886 140.1694,33.5016 C140.6374,34.2156 141.3754,34.5736 142.3844,34.5736 C143.2944,34.5736 143.9734,34.3656 144.4224,33.9496 C144.8704,33.5336 145.1284,32.8896 145.1934,32.0186 L148.1404,32.0186 Z" id="Fill-20" fill="#DD3128"></path>
                <path d="M153.5779,31.4492 L157.1539,31.4492 L155.3559,26.0952 L153.5779,31.4492 Z M157.9489,33.8362 L152.7819,33.8362 L151.7999,36.7832 L148.6659,36.7832 L153.9909,22.4802 L156.7219,22.4802 L162.0749,36.7832 L158.9409,36.7832 L157.9489,33.8362 Z" id="Fill-22" fill="#DD3128"></path>
                <path d="M166.157,29.1602 L168.535,29.1602 C169.275,29.1602 169.847,28.9722 170.254,28.5962 C170.66,28.2192 170.863,27.7002 170.863,27.0382 C170.863,26.3642 170.672,25.8332 170.288,25.4472 C169.905,25.0602 169.317,24.8672 168.525,24.8672 L166.157,24.8672 L166.157,29.1602 Z M168.506,31.5472 L166.157,31.5472 L166.157,36.7832 L163.211,36.7832 L163.211,22.4802 L168.525,22.4802 C170.215,22.4802 171.517,22.8562 172.434,23.6102 C173.351,24.3632 173.81,25.4282 173.81,26.8032 C173.81,27.7782 173.598,28.5922 173.177,29.2442 C172.754,29.8952 172.114,30.4142 171.256,30.8012 L174.35,36.6452 L174.35,36.7832 L171.187,36.7832 L168.506,31.5472 Z" id="Fill-24" fill="#DD3128"></path>
                <path d="M178.7947,29.1602 L181.1727,29.1602 C181.9127,29.1602 182.4847,28.9722 182.8917,28.5962 C183.2977,28.2192 183.5007,27.7002 183.5007,27.0382 C183.5007,26.3642 183.3097,25.8332 182.9257,25.4472 C182.5427,25.0602 181.9547,24.8672 181.1627,24.8672 L178.7947,24.8672 L178.7947,29.1602 Z M181.1437,31.5472 L178.7947,31.5472 L178.7947,36.7832 L175.8487,36.7832 L175.8487,22.4802 L181.1627,22.4802 C182.8527,22.4802 184.1547,22.8562 185.0717,23.6102 C185.9887,24.3632 186.4477,25.4282 186.4477,26.8032 C186.4477,27.7782 186.2357,28.5922 185.8147,29.2442 C185.3917,29.8952 184.7517,30.4142 183.8937,30.8012 L186.9877,36.6452 L186.9877,36.7832 L183.8247,36.7832 L181.1437,31.5472 Z" id="Fill-26" fill="#DD3128"></path>
                <polygon id="Fill-28" fill="#DD3128" points="197.0916 30.585 191.4326 30.585 191.4326 34.416 198.0726 34.416 198.0726 36.783 188.4866 36.783 188.4866 22.481 198.0536 22.481 198.0536 24.867 191.4326 24.867 191.4326 28.276 197.0916 28.276"></polygon>
                <path d="M210.9187,34.9756 C210.3887,35.6116 209.6387,36.1036 208.6687,36.4546 C207.6997,36.8046 206.6257,36.9796 205.4467,36.9796 C204.2087,36.9796 203.1237,36.7096 202.1897,36.1686 C201.2577,35.6286 200.5367,34.8446 200.0287,33.8166 C199.5217,32.7876 199.2617,31.5796 199.2487,30.1916 L199.2487,29.2186 C199.2487,27.7916 199.4887,26.5556 199.9707,25.5106 C200.4517,24.4656 201.1467,23.6666 202.0527,23.1146 C202.9597,22.5606 204.0227,22.2846 205.2407,22.2846 C206.9367,22.2846 208.2627,22.6886 209.2197,23.4966 C210.1757,24.3056 210.7417,25.4836 210.9187,27.0286 L208.0507,27.0286 C207.9187,26.2096 207.6297,25.6106 207.1807,25.2306 C206.7317,24.8516 206.1147,24.6616 205.3287,24.6616 C204.3267,24.6616 203.5647,25.0376 203.0397,25.7906 C202.5167,26.5436 202.2507,27.6636 202.2447,29.1506 L202.2447,30.0636 C202.2447,31.5636 202.5287,32.6966 203.0997,33.4626 C203.6687,34.2296 204.5037,34.6126 205.6047,34.6126 C206.7107,34.6126 207.4997,34.3756 207.9717,33.9056 L207.9717,31.4396 L205.2897,31.4396 L205.2897,29.2686 L210.9187,29.2686 L210.9187,34.9756 Z" id="Fill-30" fill="#DD3128"></path>
                <mask id="mask-4" fill="white">
                    <use xlink:href="#path-3"></use>
                </mask>
                <g id="Clip-33"></g>
                <polygon id="Fill-32" fill="#DD3128" mask="url(#mask-4)" points="213.291 36.7829 216.238 36.7829 216.238 22.4799 213.291 22.4799"></polygon>
                <path d="M226.1844,33.0303 C226.1844,32.4733 225.9884,32.0473 225.5954,31.7493 C225.2024,31.4513 224.4954,31.1363 223.4734,30.8053 C222.4524,30.4743 221.6434,30.1493 221.0464,29.8283 C219.4224,28.9513 218.6114,27.7683 218.6114,26.2823 C218.6114,25.5093 218.8294,24.8203 219.2644,24.2143 C219.7004,23.6083 220.3254,23.1343 221.1404,22.7953 C221.9554,22.4543 222.8714,22.2843 223.8864,22.2843 C224.9084,22.2843 225.8184,22.4683 226.6174,22.8393 C227.4154,23.2093 228.0374,23.7313 228.4784,24.4053 C228.9204,25.0803 229.1414,25.8463 229.1414,26.7043 L226.1944,26.7043 C226.1944,26.0503 225.9884,25.5403 225.5764,25.1763 C225.1634,24.8133 224.5834,24.6323 223.8364,24.6323 C223.1164,24.6323 222.5564,24.7843 222.1574,25.0893 C221.7574,25.3923 221.5584,25.7943 221.5584,26.2923 C221.5584,26.7573 221.7914,27.1463 222.2604,27.4613 C222.7284,27.7753 223.4174,28.0693 224.3284,28.3443 C226.0044,28.8493 227.2264,29.4743 227.9924,30.2203 C228.7584,30.9673 229.1414,31.8973 229.1414,33.0103 C229.1414,34.2493 228.6734,35.2193 227.7374,35.9243 C226.8004,36.6283 225.5394,36.9793 223.9554,36.9793 C222.8544,36.9793 221.8524,36.7783 220.9494,36.3763 C220.0444,35.9723 219.3564,35.4213 218.8804,34.7203 C218.4064,34.0193 218.1684,33.2073 218.1684,32.2843 L221.1254,32.2843 C221.1254,33.8623 222.0694,34.6513 223.9554,34.6513 C224.6554,34.6513 225.2024,34.5093 225.5954,34.2243 C225.9884,33.9393 226.1844,33.5413 226.1844,33.0303" id="Fill-34" fill="#DD3128" mask="url(#mask-4)"></path>
                <polygon id="Fill-35" fill="#DD3128" mask="url(#mask-4)" points="241.701 24.8672 237.319 24.8672 237.319 36.7832 234.372 36.7832 234.372 24.8672 230.05 24.8672 230.05 22.4802 241.701 22.4802"></polygon>
                <path d="M246.1258,29.1602 L248.5038,29.1602 C249.2438,29.1602 249.8158,28.9722 250.2228,28.5962 C250.6288,28.2192 250.8318,27.7002 250.8318,27.0382 C250.8318,26.3642 250.6408,25.8332 250.2568,25.4472 C249.8738,25.0602 249.2858,24.8672 248.4938,24.8672 L246.1258,24.8672 L246.1258,29.1602 Z M248.4748,31.5472 L246.1258,31.5472 L246.1258,36.7832 L243.1798,36.7832 L243.1798,22.4802 L248.4938,22.4802 C250.1838,22.4802 251.4858,22.8562 252.4028,23.6102 C253.3198,24.3632 253.7788,25.4282 253.7788,26.8032 C253.7788,27.7782 253.5668,28.5922 253.1458,29.2442 C252.7228,29.8952 252.0828,30.4142 251.2248,30.8012 L254.3188,36.6452 L254.3188,36.7832 L251.1558,36.7832 L248.4748,31.5472 Z" id="Fill-36" fill="#DD3128" mask="url(#mask-4)"></path>
                <path d="M259.5203,31.4492 L263.0963,31.4492 L261.2983,26.0952 L259.5203,31.4492 Z M263.8913,33.8362 L258.7243,33.8362 L257.7423,36.7832 L254.6083,36.7832 L259.9333,22.4802 L262.6643,22.4802 L268.0173,36.7832 L264.8833,36.7832 L263.8913,33.8362 Z" id="Fill-37" fill="#DD3128" mask="url(#mask-4)"></path>
                <polygon id="Fill-38" fill="#DD3128" mask="url(#mask-4)" points="278.741 24.8672 274.359 24.8672 274.359 36.7832 271.412 36.7832 271.412 24.8672 267.09 24.8672 267.09 22.4802 278.741 22.4802"></polygon>
                <polygon id="Fill-39" fill="#DD3128" mask="url(#mask-4)" points="280.406 36.7829 283.353 36.7829 283.353 22.4799 280.406 22.4799"></polygon>
                <path d="M294.6453,29.3076 C294.6453,27.8076 294.3753,26.6676 293.8393,25.8886 C293.3023,25.1096 292.5363,24.7196 291.5413,24.7196 C290.5513,24.7196 289.7893,25.1046 289.2513,25.8736 C288.7143,26.6436 288.4433,27.7716 288.4363,29.2586 L288.4363,29.9556 C288.4363,31.4156 288.7053,32.5486 289.2423,33.3546 C289.7793,34.1606 290.5513,34.5636 291.5603,34.5636 C292.5483,34.5636 293.3083,34.1746 293.8393,33.3996 C294.3703,32.6226 294.6383,31.4926 294.6453,30.0046 L294.6453,29.3076 Z M297.6313,29.9556 C297.6313,31.3646 297.3823,32.5986 296.8843,33.6596 C296.3863,34.7206 295.6743,35.5386 294.7483,36.1156 C293.8213,36.6916 292.7583,36.9796 291.5603,36.9796 C290.3743,36.9796 289.3173,36.6946 288.3873,36.1246 C287.4573,35.5556 286.7373,34.7416 286.2263,33.6836 C285.7153,32.6256 285.4573,31.4106 285.4503,30.0346 L285.4503,29.3276 C285.4503,27.9186 285.7043,26.6796 286.2113,25.6096 C286.7183,24.5376 287.4363,23.7166 288.3633,23.1436 C289.2903,22.5706 290.3483,22.2846 291.5413,22.2846 C292.7323,22.2846 293.7913,22.5706 294.7183,23.1436 C295.6453,23.7166 296.3623,24.5376 296.8703,25.6096 C297.3773,26.6796 297.6313,27.9156 297.6313,29.3176 L297.6313,29.9556 Z" id="Fill-40" fill="#DD3128" mask="url(#mask-4)"></path>
                <polygon id="Fill-41" fill="#DD3128" mask="url(#mask-4)" points="311.2029 36.7832 308.2559 36.7832 302.5179 27.3722 302.5179 36.7832 299.5719 36.7832 299.5719 22.4802 302.5179 22.4802 308.2649 31.9112 308.2649 22.4802 311.2029 22.4802"></polygon>
                <path d="M313.5359,35.3887 C313.5359,34.9367 313.6879,34.5697 313.9929,34.2877 C314.2979,34.0067 314.6799,33.8657 315.1379,33.8657 C315.6019,33.8657 315.9869,34.0067 316.2919,34.2877 C316.5969,34.5697 316.7489,34.9367 316.7489,35.3887 C316.7489,35.8337 316.5979,36.1957 316.2969,36.4737 C315.9959,36.7517 315.6089,36.8917 315.1379,36.8917 C314.6729,36.8917 314.2899,36.7517 313.9879,36.4737 C313.6869,36.1957 313.5359,35.8337 313.5359,35.3887" id="Fill-42" fill="#DD3128" mask="url(#mask-4)"></path>
                <path d="M327.9822,29.3076 C327.9822,27.8076 327.7122,26.6676 327.1762,25.8886 C326.6392,25.1096 325.8732,24.7196 324.8782,24.7196 C323.8882,24.7196 323.1262,25.1046 322.5882,25.8736 C322.0512,26.6436 321.7802,27.7716 321.7732,29.2586 L321.7732,29.9556 C321.7732,31.4156 322.0422,32.5486 322.5792,33.3546 C323.1162,34.1606 323.8882,34.5636 324.8972,34.5636 C325.8852,34.5636 326.6452,34.1746 327.1762,33.3996 C327.7072,32.6226 327.9752,31.4926 327.9822,30.0046 L327.9822,29.3076 Z M330.9682,29.9556 C330.9682,31.3646 330.7192,32.5986 330.2212,33.6596 C329.7232,34.7206 329.0112,35.5386 328.0852,36.1156 C327.1582,36.6916 326.0952,36.9796 324.8972,36.9796 C323.7112,36.9796 322.6542,36.6946 321.7242,36.1246 C320.7942,35.5556 320.0742,34.7416 319.5632,33.6836 C319.0522,32.6256 318.7942,31.4106 318.7872,30.0346 L318.7872,29.3276 C318.7872,27.9186 319.0412,26.6796 319.5482,25.6096 C320.0552,24.5376 320.7732,23.7166 321.7002,23.1436 C322.6272,22.5706 323.6852,22.2846 324.8782,22.2846 C326.0692,22.2846 327.1282,22.5706 328.0552,23.1436 C328.9822,23.7166 329.6992,24.5376 330.2072,25.6096 C330.7142,26.6796 330.9682,27.9156 330.9682,29.3176 L330.9682,29.9556 Z" id="Fill-43" fill="#DD3128" mask="url(#mask-4)"></path>
                <path d="M335.8543,29.1602 L338.2323,29.1602 C338.9723,29.1602 339.5443,28.9722 339.9513,28.5962 C340.3573,28.2192 340.5603,27.7002 340.5603,27.0382 C340.5603,26.3642 340.3693,25.8332 339.9853,25.4472 C339.6023,25.0602 339.0143,24.8672 338.2223,24.8672 L335.8543,24.8672 L335.8543,29.1602 Z M338.2033,31.5472 L335.8543,31.5472 L335.8543,36.7832 L332.9083,36.7832 L332.9083,22.4802 L338.2223,22.4802 C339.9123,22.4802 341.2143,22.8562 342.1313,23.6102 C343.0483,24.3632 343.5073,25.4282 343.5073,26.8032 C343.5073,27.7782 343.2953,28.5922 342.8743,29.2442 C342.4513,29.8952 341.8113,30.4142 340.9533,30.8012 L344.0473,36.6452 L344.0473,36.7832 L340.8843,36.7832 L338.2033,31.5472 Z" id="Fill-44" fill="#DD3128" mask="url(#mask-4)"></path>
                <path d="M356.8631,34.9756 C356.3331,35.6116 355.5831,36.1036 354.6131,36.4546 C353.6441,36.8046 352.5701,36.9796 351.3911,36.9796 C350.1531,36.9796 349.0681,36.7096 348.1341,36.1686 C347.2021,35.6286 346.4811,34.8446 345.9731,33.8166 C345.4661,32.7876 345.2061,31.5796 345.1931,30.1916 L345.1931,29.2186 C345.1931,27.7916 345.4331,26.5556 345.9151,25.5106 C346.3961,24.4656 347.0911,23.6666 347.9971,23.1146 C348.9041,22.5606 349.9671,22.2846 351.1851,22.2846 C352.8811,22.2846 354.2071,22.6886 355.1641,23.4966 C356.1201,24.3056 356.6861,25.4836 356.8631,27.0286 L353.9951,27.0286 C353.8631,26.2096 353.5741,25.6106 353.1251,25.2306 C352.6761,24.8516 352.0591,24.6616 351.2731,24.6616 C350.2711,24.6616 349.5091,25.0376 348.9841,25.7906 C348.4611,26.5436 348.1951,27.6636 348.1891,29.1506 L348.1891,30.0636 C348.1891,31.5636 348.4731,32.6966 349.0441,33.4626 C349.6131,34.2296 350.4481,34.6126 351.5491,34.6126 C352.6551,34.6126 353.4441,34.3756 353.9161,33.9056 L353.9161,31.4396 L351.2341,31.4396 L351.2341,29.2686 L356.8631,29.2686 L356.8631,34.9756 Z" id="Fill-45" fill="#DD3128" mask="url(#mask-4)"></path>
            </g>
        </g>
    </g>
</svg>